<svg xmlns="http://www.w3.org/2000/svg" viewBox="0 0 1000 400" width="1000" height="400">
  <!-- Arrière-plan - Montagnes lointaines remplies (teinte claire) -->
  <!-- Montagne 1 arrière-plan -->
  <circle cx="100" cy="280" r="1.5" fill="#b8bcc8"/>
  <circle cx="110" cy="275" r="1.5" fill="#b8bcc8"/>
  <circle cx="120" cy="270" r="1.5" fill="#b8bcc8"/>
  <circle cx="130" cy="265" r="1.5" fill="#b8bcc8"/>
  <circle cx="140" cy="260" r="1.5" fill="#b8bcc8"/>
  <circle cx="150" cy="255" r="1.5" fill="#b8bcc8"/>
  <circle cx="160" cy="250" r="1.5" fill="#b8bcc8"/>
  <circle cx="170" cy="245" r="1.5" fill="#b8bcc8"/>
  <circle cx="180" cy="240" r="1.5" fill="#b8bcc8"/>
  <circle cx="190" cy="235" r="1.5" fill="#b8bcc8"/>
  <circle cx="200" cy="230" r="1.5" fill="#b8bcc8"/>
  <circle cx="210" cy="235" r="1.5" fill="#b8bcc8"/>
  <circle cx="220" cy="240" r="1.5" fill="#b8bcc8"/>
  <circle cx="230" cy="245" r="1.5" fill="#b8bcc8"/>
  <circle cx="240" cy="250" r="1.5" fill="#b8bcc8"/>
  <circle cx="250" cy="255" r="1.5" fill="#b8bcc8"/>

  <!-- Remplissage montagne 1 arrière-plan -->
  <circle cx="105" cy="285" r="1.5" fill="#b8bcc8"/>
  <circle cx="115" cy="280" r="1.5" fill="#b8bcc8"/>
  <circle cx="125" cy="275" r="1.5" fill="#b8bcc8"/>
  <circle cx="135" cy="270" r="1.5" fill="#b8bcc8"/>
  <circle cx="145" cy="265" r="1.5" fill="#b8bcc8"/>
  <circle cx="155" cy="260" r="1.5" fill="#b8bcc8"/>
  <circle cx="165" cy="255" r="1.5" fill="#b8bcc8"/>
  <circle cx="175" cy="250" r="1.5" fill="#b8bcc8"/>
  <circle cx="185" cy="245" r="1.5" fill="#b8bcc8"/>
  <circle cx="195" cy="240" r="1.5" fill="#b8bcc8"/>
  <circle cx="205" cy="245" r="1.5" fill="#b8bcc8"/>
  <circle cx="215" cy="250" r="1.5" fill="#b8bcc8"/>
  <circle cx="225" cy="255" r="1.5" fill="#b8bcc8"/>
  <circle cx="235" cy="260" r="1.5" fill="#b8bcc8"/>
  <circle cx="245" cy="265" r="1.5" fill="#b8bcc8"/>

  <circle cx="110" cy="290" r="1.5" fill="#b8bcc8"/>
  <circle cx="120" cy="285" r="1.5" fill="#b8bcc8"/>
  <circle cx="130" cy="280" r="1.5" fill="#b8bcc8"/>
  <circle cx="140" cy="275" r="1.5" fill="#b8bcc8"/>
  <circle cx="150" cy="270" r="1.5" fill="#b8bcc8"/>
  <circle cx="160" cy="265" r="1.5" fill="#b8bcc8"/>
  <circle cx="170" cy="260" r="1.5" fill="#b8bcc8"/>
  <circle cx="180" cy="255" r="1.5" fill="#b8bcc8"/>
  <circle cx="190" cy="250" r="1.5" fill="#b8bcc8"/>
  <circle cx="200" cy="255" r="1.5" fill="#b8bcc8"/>
  <circle cx="210" cy="260" r="1.5" fill="#b8bcc8"/>
  <circle cx="220" cy="265" r="1.5" fill="#b8bcc8"/>
  <circle cx="230" cy="270" r="1.5" fill="#b8bcc8"/>
  <circle cx="240" cy="275" r="1.5" fill="#b8bcc8"/>

  <!-- Montagne 2 arrière-plan -->
  <circle cx="400" cy="290" r="1.5" fill="#b8bcc8"/>
  <circle cx="415" cy="285" r="1.5" fill="#b8bcc8"/>
  <circle cx="430" cy="280" r="1.5" fill="#b8bcc8"/>
  <circle cx="445" cy="275" r="1.5" fill="#b8bcc8"/>
  <circle cx="460" cy="270" r="1.5" fill="#b8bcc8"/>
  <circle cx="475" cy="275" r="1.5" fill="#b8bcc8"/>
  <circle cx="490" cy="280" r="1.5" fill="#b8bcc8"/>
  <circle cx="505" cy="285" r="1.5" fill="#b8bcc8"/>
  <circle cx="520" cy="290" r="1.5" fill="#b8bcc8"/>

  <circle cx="410" cy="295" r="1.5" fill="#b8bcc8"/>
  <circle cx="425" cy="290" r="1.5" fill="#b8bcc8"/>
  <circle cx="440" cy="285" r="1.5" fill="#b8bcc8"/>
  <circle cx="455" cy="280" r="1.5" fill="#b8bcc8"/>
  <circle cx="470" cy="285" r="1.5" fill="#b8bcc8"/>
  <circle cx="485" cy="290" r="1.5" fill="#b8bcc8"/>
  <circle cx="500" cy="295" r="1.5" fill="#b8bcc8"/>

  <!-- Plan moyen - Montagnes intermédiaires remplies (teinte moyenne) -->
  <!-- Montagne 1 plan moyen -->
  <circle cx="80" cy="320" r="1.5" fill="#718096"/>
  <circle cx="95" cy="310" r="1.5" fill="#718096"/>
  <circle cx="110" cy="300" r="1.5" fill="#718096"/>
  <circle cx="125" cy="290" r="1.5" fill="#718096"/>
  <circle cx="140" cy="280" r="1.5" fill="#718096"/>
  <circle cx="155" cy="270" r="1.5" fill="#718096"/>
  <circle cx="170" cy="260" r="1.5" fill="#718096"/>
  <circle cx="185" cy="250" r="1.5" fill="#718096"/>
  <circle cx="200" cy="240" r="1.5" fill="#718096"/>
  <circle cx="215" cy="230" r="1.5" fill="#718096"/>
  <circle cx="230" cy="220" r="1.5" fill="#718096"/>
  <circle cx="245" cy="210" r="1.5" fill="#718096"/>
  <circle cx="260" cy="200" r="1.5" fill="#718096"/>
  <circle cx="275" cy="190" r="1.5" fill="#718096"/>
  <circle cx="290" cy="185" r="1.5" fill="#718096"/>
  <circle cx="305" cy="190" r="1.5" fill="#718096"/>
  <circle cx="320" cy="200" r="1.5" fill="#718096"/>
  <circle cx="335" cy="210" r="1.5" fill="#718096"/>
  <circle cx="350" cy="220" r="1.5" fill="#718096"/>
  <circle cx="365" cy="230" r="1.5" fill="#718096"/>
  <circle cx="380" cy="240" r="1.5" fill="#718096"/>
  <circle cx="395" cy="250" r="1.5" fill="#718096"/>
  <circle cx="410" cy="260" r="1.5" fill="#718096"/>

  <!-- Remplissage montagne 1 plan moyen -->
  <circle cx="90" cy="325" r="1.5" fill="#718096"/>
  <circle cx="105" cy="315" r="1.5" fill="#718096"/>
  <circle cx="120" cy="305" r="1.5" fill="#718096"/>
  <circle cx="135" cy="295" r="1.5" fill="#718096"/>
  <circle cx="150" cy="285" r="1.5" fill="#718096"/>
  <circle cx="165" cy="275" r="1.5" fill="#718096"/>
  <circle cx="180" cy="265" r="1.5" fill="#718096"/>
  <circle cx="195" cy="255" r="1.5" fill="#718096"/>
  <circle cx="210" cy="245" r="1.5" fill="#718096"/>
  <circle cx="225" cy="235" r="1.5" fill="#718096"/>
  <circle cx="240" cy="225" r="1.5" fill="#718096"/>
  <circle cx="255" cy="215" r="1.5" fill="#718096"/>
  <circle cx="270" cy="205" r="1.5" fill="#718096"/>
  <circle cx="285" cy="195" r="1.5" fill="#718096"/>
  <circle cx="300" cy="205" r="1.5" fill="#718096"/>
  <circle cx="315" cy="215" r="1.5" fill="#718096"/>
  <circle cx="330" cy="225" r="1.5" fill="#718096"/>
  <circle cx="345" cy="235" r="1.5" fill="#718096"/>
  <circle cx="360" cy="245" r="1.5" fill="#718096"/>
  <circle cx="375" cy="255" r="1.5" fill="#718096"/>
  <circle cx="390" cy="265" r="1.5" fill="#718096"/>
  <circle cx="405" cy="275" r="1.5" fill="#718096"/>

  <!-- Lignes supplémentaires de remplissage -->
  <circle cx="100" cy="330" r="1.5" fill="#718096"/>
  <circle cx="115" cy="320" r="1.5" fill="#718096"/>
  <circle cx="130" cy="310" r="1.5" fill="#718096"/>
  <circle cx="145" cy="300" r="1.5" fill="#718096"/>
  <circle cx="160" cy="290" r="1.5" fill="#718096"/>
  <circle cx="175" cy="280" r="1.5" fill="#718096"/>
  <circle cx="190" cy="270" r="1.5" fill="#718096"/>
  <circle cx="205" cy="260" r="1.5" fill="#718096"/>
  <circle cx="220" cy="250" r="1.5" fill="#718096"/>
  <circle cx="235" cy="240" r="1.5" fill="#718096"/>
  <circle cx="250" cy="230" r="1.5" fill="#718096"/>
  <circle cx="265" cy="220" r="1.5" fill="#718096"/>
  <circle cx="280" cy="210" r="1.5" fill="#718096"/>
  <circle cx="295" cy="220" r="1.5" fill="#718096"/>
  <circle cx="310" cy="230" r="1.5" fill="#718096"/>
  <circle cx="325" cy="240" r="1.5" fill="#718096"/>
  <circle cx="340" cy="250" r="1.5" fill="#718096"/>
  <circle cx="355" cy="260" r="1.5" fill="#718096"/>
  <circle cx="370" cy="270" r="1.5" fill="#718096"/>
  <circle cx="385" cy="280" r="1.5" fill="#718096"/>
  <circle cx="400" cy="290" r="1.5" fill="#718096"/>

  <!-- Premier plan - Montagnes proches remplies (teinte foncée) -->
  <!-- Contour montagne principale -->
  <circle cx="50" cy="370" r="1.5" fill="#2d3748"/>
  <circle cx="70" cy="360" r="1.5" fill="#2d3748"/>
  <circle cx="90" cy="350" r="1.5" fill="#2d3748"/>
  <circle cx="110" cy="340" r="1.5" fill="#2d3748"/>
  <circle cx="130" cy="330" r="1.5" fill="#2d3748"/>
  <circle cx="150" cy="320" r="1.5" fill="#2d3748"/>
  <circle cx="170" cy="310" r="1.5" fill="#2d3748"/>
  <circle cx="190" cy="300" r="1.5" fill="#2d3748"/>
  <circle cx="210" cy="290" r="1.5" fill="#2d3748"/>
  <circle cx="230" cy="280" r="1.5" fill="#2d3748"/>
  <circle cx="250" cy="270" r="1.5" fill="#2d3748"/>
  <circle cx="270" cy="260" r="1.5" fill="#2d3748"/>
  <circle cx="290" cy="250" r="1.5" fill="#2d3748"/>
  <circle cx="310" cy="240" r="1.5" fill="#2d3748"/>
  <circle cx="330" cy="230" r="1.5" fill="#2d3748"/>
  <circle cx="350" cy="220" r="1.5" fill="#2d3748"/>
  <circle cx="370" cy="210" r="1.5" fill="#2d3748"/>
  <circle cx="390" cy="200" r="1.5" fill="#2d3748"/>
  <circle cx="410" cy="190" r="1.5" fill="#2d3748"/>
  <circle cx="430" cy="180" r="1.5" fill="#2d3748"/>
  <circle cx="450" cy="170" r="1.5" fill="#2d3748"/>
  <circle cx="470" cy="160" r="1.5" fill="#2d3748"/>
  <circle cx="490" cy="150" r="1.5" fill="#2d3748"/>
  <circle cx="510" cy="140" r="1.5" fill="#2d3748"/>
  <circle cx="530" cy="130" r="1.5" fill="#2d3748"/>
  <circle cx="550" cy="120" r="1.5" fill="#2d3748"/>
  <circle cx="570" cy="110" r="1.5" fill="#2d3748"/>
  <circle cx="590" cy="100" r="1.5" fill="#2d3748"/>
  <circle cx="610" cy="90" r="1.5" fill="#2d3748"/>
  <circle cx="630" cy="85" r="1.5" fill="#2d3748"/>
  <circle cx="650" cy="90" r="1.5" fill="#2d3748"/>
  <circle cx="670" cy="100" r="1.5" fill="#2d3748"/>
  <circle cx="690" cy="110" r="1.5" fill="#2d3748"/>
  <circle cx="710" cy="120" r="1.5" fill="#2d3748"/>
  <circle cx="730" cy="130" r="1.5" fill="#2d3748"/>
  <circle cx="750" cy="140" r="1.5" fill="#2d3748"/>
  <circle cx="770" cy="150" r="1.5" fill="#2d3748"/>
  <circle cx="790" cy="160" r="1.5" fill="#2d3748"/>
  <circle cx="810" cy="170" r="1.5" fill="#2d3748"/>
  <circle cx="830" cy="180" r="1.5" fill="#2d3748"/>
  <circle cx="850" cy="190" r="1.5" fill="#2d3748"/>
  <circle cx="870" cy="200" r="1.5" fill="#2d3748"/>
  <circle cx="890" cy="210" r="1.5" fill="#2d3748"/>
  <circle cx="910" cy="220" r="1.5" fill="#2d3748"/>
  <circle cx="930" cy="230" r="1.5" fill="#2d3748"/>
  <circle cx="950" cy="240" r="1.5" fill="#2d3748"/>

  <!-- Remplissage complet montagne principale - Ligne 1 -->
  <circle cx="60" cy="375" r="1.5" fill="#2d3748"/>
  <circle cx="80" cy="365" r="1.5" fill="#2d3748"/>
  <circle cx="100" cy="355" r="1.5" fill="#2d3748"/>
  <circle cx="120" cy="345" r="1.5" fill="#2d3748"/>
  <circle cx="140" cy="335" r="1.5" fill="#2d3748"/>
  <circle cx="160" cy="325" r="1.5" fill="#2d3748"/>
  <circle cx="180" cy="315" r="1.5" fill="#2d3748"/>
  <circle cx="200" cy="305" r="1.5" fill="#2d3748"/>
  <circle cx="220" cy="295" r="1.5" fill="#2d3748"/>
  <circle cx="240" cy="285" r="1.5" fill="#2d3748"/>
  <circle cx="260" cy="275" r="1.5" fill="#2d3748"/>
  <circle cx="280" cy="265" r="1.5" fill="#2d3748"/>
  <circle cx="300" cy="255" r="1.5" fill="#2d3748"/>
  <circle cx="320" cy="245" r="1.5" fill="#2d3748"/>
  <circle cx="340" cy="235" r="1.5" fill="#2d3748"/>
  <circle cx="360" cy="225" r="1.5" fill="#2d3748"/>
  <circle cx="380" cy="215" r="1.5" fill="#2d3748"/>
  <circle cx="400" cy="205" r="1.5" fill="#2d3748"/>
  <circle cx="420" cy="195" r="1.5" fill="#2d3748"/>
  <circle cx="440" cy="185" r="1.5" fill="#2d3748"/>
  <circle cx="460" cy="175" r="1.5" fill="#2d3748"/>
  <circle cx="480" cy="165" r="1.5" fill="#2d3748"/>
  <circle cx="500" cy="155" r="1.5" fill="#2d3748"/>
  <circle cx="520" cy="145" r="1.5" fill="#2d3748"/>
  <circle cx="540" cy="135" r="1.5" fill="#2d3748"/>
  <circle cx="560" cy="125" r="1.5" fill="#2d3748"/>
  <circle cx="580" cy="115" r="1.5" fill="#2d3748"/>
  <circle cx="600" cy="105" r="1.5" fill="#2d3748"/>
  <circle cx="620" cy="95" r="1.5" fill="#2d3748"/>
  <circle cx="640" cy="105" r="1.5" fill="#2d3748"/>
  <circle cx="660" cy="115" r="1.5" fill="#2d3748"/>
  <circle cx="680" cy="125" r="1.5" fill="#2d3748"/>
  <circle cx="700" cy="135" r="1.5" fill="#2d3748"/>
  <circle cx="720" cy="145" r="1.5" fill="#2d3748"/>
  <circle cx="740" cy="155" r="1.5" fill="#2d3748"/>
  <circle cx="760" cy="165" r="1.5" fill="#2d3748"/>
  <circle cx="780" cy="175" r="1.5" fill="#2d3748"/>
  <circle cx="800" cy="185" r="1.5" fill="#2d3748"/>
  <circle cx="820" cy="195" r="1.5" fill="#2d3748"/>
  <circle cx="840" cy="205" r="1.5" fill="#2d3748"/>
  <circle cx="860" cy="215" r="1.5" fill="#2d3748"/>
  <circle cx="880" cy="225" r="1.5" fill="#2d3748"/>
  <circle cx="900" cy="235" r="1.5" fill="#2d3748"/>
  <circle cx="920" cy="245" r="1.5" fill="#2d3748"/>
  <circle cx="940" cy="255" r="1.5" fill="#2d3748"/>

  <!-- Remplissage complet montagne principale - Ligne 2 -->
  <circle cx="70" cy="380" r="1.5" fill="#2d3748"/>
  <circle cx="90" cy="370" r="1.5" fill="#2d3748"/>
  <circle cx="110" cy="360" r="1.5" fill="#2d3748"/>
  <circle cx="130" cy="350" r="1.5" fill="#2d3748"/>
  <circle cx="150" cy="340" r="1.5" fill="#2d3748"/>
  <circle cx="170" cy="330" r="1.5" fill="#2d3748"/>
  <circle cx="190" cy="320" r="1.5" fill="#2d3748"/>
  <circle cx="210" cy="310" r="1.5" fill="#2d3748"/>
  <circle cx="230" cy="300" r="1.5" fill="#2d3748"/>
  <circle cx="250" cy="290" r="1.5" fill="#2d3748"/>
  <circle cx="270" cy="280" r="1.5" fill="#2d3748"/>
  <circle cx="290" cy="270" r="1.5" fill="#2d3748"/>
  <circle cx="310" cy="260" r="1.5" fill="#2d3748"/>
  <circle cx="330" cy="250" r="1.5" fill="#2d3748"/>
  <circle cx="350" cy="240" r="1.5" fill="#2d3748"/>
  <circle cx="370" cy="230" r="1.5" fill="#2d3748"/>
  <circle cx="390" cy="220" r="1.5" fill="#2d3748"/>
  <circle cx="410" cy="210" r="1.5" fill="#2d3748"/>
  <circle cx="430" cy="200" r="1.5" fill="#2d3748"/>
  <circle cx="450" cy="190" r="1.5" fill="#2d3748"/>
  <circle cx="470" cy="180" r="1.5" fill="#2d3748"/>
  <circle cx="490" cy="170" r="1.5" fill="#2d3748"/>
  <circle cx="510" cy="160" r="1.5" fill="#2d3748"/>
  <circle cx="530" cy="150" r="1.5" fill="#2d3748"/>
  <circle cx="550" cy="140" r="1.5" fill="#2d3748"/>
  <circle cx="570" cy="130" r="1.5" fill="#2d3748"/>
  <circle cx="590" cy="120" r="1.5" fill="#2d3748"/>
  <circle cx="610" cy="110" r="1.5" fill="#2d3748"/>
  <circle cx="630" cy="120" r="1.5" fill="#2d3748"/>
  <circle cx="650" cy="130" r="1.5" fill="#2d3748"/>
  <circle cx="670" cy="140" r="1.5" fill="#2d3748"/>
  <circle cx="690" cy="150" r="1.5" fill="#2d3748"/>
  <circle cx="710" cy="160" r="1.5" fill="#2d3748"/>
  <circle cx="730" cy="170" r="1.5" fill="#2d3748"/>
  <circle cx="750" cy="180" r="1.5" fill="#2d3748"/>
  <circle cx="770" cy="190" r="1.5" fill="#2d3748"/>
  <circle cx="790" cy="200" r="1.5" fill="#2d3748"/>
  <circle cx="810" cy="210" r="1.5" fill="#2d3748"/>
  <circle cx="830" cy="220" r="1.5" fill="#2d3748"/>
  <circle cx="850" cy="230" r="1.5" fill="#2d3748"/>
  <circle cx="870" cy="240" r="1.5" fill="#2d3748"/>
  <circle cx="890" cy="250" r="1.5" fill="#2d3748"/>
  <circle cx="910" cy="260" r="1.5" fill="#2d3748"/>
  <circle cx="930" cy="270" r="1.5" fill="#2d3748"/>

  <!-- Remplissage complet montagne principale - Lignes supplémentaires -->
  <circle cx="80" cy="385" r="1.5" fill="#2d3748"/>
  <circle cx="100" cy="375" r="1.5" fill="#2d3748"/>
  <circle cx="120" cy="365" r="1.5" fill="#2d3748"/>
  <circle cx="140" cy="355" r="1.5" fill="#2d3748"/>
  <circle cx="160" cy="345" r="1.5" fill="#2d3748"/>
  <circle cx="180" cy="335" r="1.5" fill="#2d3748"/>
  <circle cx="200" cy="325" r="1.5" fill="#2d3748"/>
  <circle cx="220" cy="315" r="1.5" fill="#2d3748"/>
  <circle cx="240" cy="305" r="1.5" fill="#2d3748"/>
  <circle cx="260" cy="295" r="1.5" fill="#2d3748"/>
  <circle cx="280" cy="285" r="1.5" fill="#2d3748"/>
  <circle cx="300" cy="275" r="1.5" fill="#2d3748"/>
  <circle cx="320" cy="265" r="1.5" fill="#2d3748"/>
  <circle cx="340" cy="255" r="1.5" fill="#2d3748"/>
  <circle cx="360" cy="245" r="1.5" fill="#2d3748"/>
  <circle cx="380" cy="235" r="1.5" fill="#2d3748"/>
  <circle cx="400" cy="225" r="1.5" fill="#2d3748"/>
  <circle cx="420" cy="215" r="1.5" fill="#2d3748"/>
  <circle cx="440" cy="205" r="1.5" fill="#2d3748"/>
  <circle cx="460" cy="195" r="1.5" fill="#2d3748"/>
  <circle cx="480" cy="185" r="1.5" fill="#2d3748"/>
  <circle cx="500" cy="175" r="1.5" fill="#2d3748"/>
  <circle cx="520" cy="165" r="1.5" fill="#2d3748"/>
  <circle cx="540" cy="155" r="1.5" fill="#2d3748"/>
  <circle cx="560" cy="145" r="1.5" fill="#2d3748"/>
  <circle cx="580" cy="135" r="1.5" fill="#2d3748"/>
  <circle cx="600" cy="125" r="1.5" fill="#2d3748"/>
  <circle cx="620" cy="135" r="1.5" fill="#2d3748"/>
  <circle cx="640" cy="145" r="1.5" fill="#2d3748"/>
  <circle cx="660" cy="155" r="1.5" fill="#2d3748"/>
  <circle cx="680" cy="165" r="1.5" fill="#2d3748"/>
  <circle cx="700" cy="175" r="1.5" fill="#2d3748"/>
  <circle cx="720" cy="185" r="1.5" fill="#2d3748"/>
  <circle cx="740" cy="195" r="1.5" fill="#2d3748"/>
  <circle cx="760" cy="205" r="1.5" fill="#2d3748"/>
  <circle cx="780" cy="215" r="1.5" fill="#2d3748"/>
  <circle cx="800" cy="225" r="1.5" fill="#2d3748"/>
  <circle cx="820" cy="235" r="1.5" fill="#2d3748"/>
  <circle cx="840" cy="245" r="1.5" fill="#2d3748"/>
  <circle cx="860" cy="255" r="1.5" fill="#2d3748"/>
  <circle cx="880" cy="265" r="1.5" fill="#2d3748"/>
  <circle cx="900" cy="275" r="1.5" fill="#2d3748"/>
  <circle cx="920" cy="285" r="1.5" fill="#2d3748"/>
</svg>
